<?xml version="1.0" encoding="UTF-8"?>
<svg version="1.1" xmlns="http://www.w3.org/2000/svg" width="400" height="400">
<path d="M0 0 C132 0 264 0 400 0 C400 132 400 264 400 400 C268 400 136 400 0 400 C0 268 0 136 0 0 Z " fill="#FEFEFE" transform="translate(0,0)"/>
<path d="M0 0 C9 0 9 0 11.8984375 1.87109375 C12.71570313 2.71800781 13.53296875 3.56492187 14.375 4.4375 C17.96868629 7.99615035 21.54211375 11.34834984 25.5 14.5 C29.28460334 17.55348679 32.92207537 20.70668301 36.5 24 C40.9698512 28.11378909 45.59044893 31.97087297 50.31640625 35.78515625 C52.94708557 37.95632827 55.47942424 40.20241357 58 42.5 C61.41739372 45.61458668 64.9052235 48.5918662 68.5 51.5 C72.96276213 55.11032442 77.22719533 58.88427929 81.46875 62.75 C84.96905208 65.86137963 88.61272741 68.78263067 92.25390625 71.7265625 C95.87590778 74.72514698 99.34742454 77.87292075 102.80859375 81.0546875 C104.78391372 82.80818009 106.88693584 84.41520188 109 86 C109.33 57.62 109.66 29.24 110 0 C146.96 0 183.92 0 222 0 C222 58.08 222 116.16 222 176 C212 176 212 176 209.00390625 174.12890625 C208.19824219 173.28199219 207.39257812 172.43507813 206.5625 171.5625 C205.64082031 170.64210938 204.71914063 169.72171875 203.76953125 168.7734375 C202.85558594 167.85820312 201.94164062 166.94296875 201 166 C199.27105429 164.53724473 197.52099733 163.09905046 195.75 161.6875 C187.27705278 154.84349816 179.1223602 147.62120777 170.9375 140.4375 C163.16587902 133.62888423 155.34955544 126.86912502 147.3125 120.375 C142.62980295 116.57673621 138.19346636 112.55837503 133.7578125 108.4765625 C130.24057857 105.31802665 126.59254854 102.34673433 122.8984375 99.3984375 C118.84035201 96.0403991 114.93683126 92.49940557 111 89 C110.67 117.71 110.34 146.42 110 176 C73.7 176 37.4 176 0 176 C0 117.92 0 59.84 0 0 Z " fill="#2F7CFE" transform="translate(89,112)"/>
<path d="M0 0 C1.32 0 2.64 0 4 0 C4.33 1.98 4.66 3.96 5 6 C6.32 5.67 7.64 5.34 9 5 C9 5.66 9 6.32 9 7 C9.99 7 10.98 7 12 7 C13.20628008 9.33214148 14.1654738 11.49642139 15 14 C15.66 13.67 16.32 13.34 17 13 C17 13.66 17 14.32 17 15 C17.99 14.67 18.98 14.34 20 14 C20.79953138 17.28696233 21.09658936 18.71023192 20 22 C20.639375 21.835 21.27875 21.67 21.9375 21.5 C24 21 24 21 25 21 C25.66 20.67 26.32 20.34 27 20 C27 20.66 27 21.32 27 22 C27.66 22.33 28.32 22.66 29 23 C29 23.66 29 24.32 29 25 C29.99 25.33 30.98 25.66 32 26 C31.67 26.66 31.34 27.32 31 28 C30.34 28 29.68 28 29 28 C29 28.99 29 29.98 29 31 C29.99 31 30.98 31 32 31 C32.33 30.34 32.66 29.68 33 29 C33.78375 29.66 34.5675 30.32 35.375 31 C37.71512812 33.20201441 37.71512812 33.20201441 40 33 C40.66 33.99 41.32 34.98 42 36 C43.90691876 37.07376846 43.90691876 37.07376846 45.8125 37.3125 C48.83849606 38.26352733 50.70949729 39.83674744 53 42 C53 42.99 53 43.98 53 45 C53.66 45 54.32 45 55 45 C55 45.66 55 46.32 55 47 C56.65 47.33 58.3 47.66 60 48 C58.02 48.495 58.02 48.495 56 49 C57.31201173 50.56249809 57.31201173 50.56249809 59 52 C59.99 52 60.98 52 62 52 C62.33 52.99 62.66 53.98 63 55 C64.65 55 66.3 55 68 55 C68.82638376 57.89234315 69 59.88742431 69 63 C69.99 62.34 70.98 61.68 72 61 C72.99 61 73.98 61 75 61 C78 65.22222222 78 65.22222222 78 68 C80.90600261 69.25664978 82.79604584 70 86 70 C85.67 70.66 85.34 71.32 85 72 C84.960008 73.99960012 84.95653201 76.00047242 85 78 C88.465 77.505 88.465 77.505 92 77 C92 77.66 92 78.32 92 79 C92.66 79.33 93.32 79.66 94 80 C93.67 80.66 93.34 81.32 93 82 C93.99 81.67 94.98 81.34 96 81 C96.33 82.65 96.66 84.3 97 86 C97.99 85.34 98.98 84.68 100 84 C100 84.99 100 85.98 100 87 C100.66 87.33 101.32 87.66 102 88 C102 88.66 102 89.32 102 90 C102.31478446 91.33783393 102.64587656 92.67203709 103 94 C104.32 93.67 105.64 93.34 107 93 C107 120.06 107 147.12 107 175 C70.7 175 34.4 175 -3 175 C-3 103.05145286 -3 103.05145286 -1.75949097 93.06355286 C-0.75522502 84.85997 -0.88624945 76.66694743 -0.92483521 68.41680717 C-0.9377061 65.63911551 -0.9441403 62.86147208 -0.94897461 60.08375549 C-0.96033496 54.20164839 -0.97962147 48.31958184 -1 42.4375 C-1.02359193 35.58792992 -1.04394526 28.73838161 -1.05593872 21.88878059 C-1.06243827 19.14713178 -1.07493758 16.40555124 -1.08764648 13.66392517 C-1.09127584 11.99787455 -1.09462796 10.3318233 -1.09765625 8.66577148 C-1.10282257 7.89961517 -1.10798889 7.13345886 -1.11331177 6.34408569 C-1.11349283 4.56232342 -1.06235529 2.78067084 -1 1 C-0.67 0.67 -0.34 0.34 0 0 Z M40 32 C42 33 42 33 42 33 Z " fill="#2C81FE" transform="translate(92,113)"/>
<path d="M0 0 C0.33 0 0.66 0 1 0 C1.89083154 11.70789125 2.13474329 23.32543695 2.09765625 35.0625 C2.09578524 36.83325154 2.09436458 38.60400361 2.09336853 40.37475586 C2.08959702 44.97771702 2.07981433 49.58064534 2.06866455 54.18359375 C2.05833331 58.90364132 2.05384612 63.62369432 2.04882812 68.34375 C2.03818579 77.56251423 2.02117607 86.78125436 2 96 C0.39607865 96.05067168 -1.20830418 96.08688101 -2.81274414 96.11694336 C-3.70610977 96.13865097 -4.5994754 96.16035858 -5.51991272 96.182724 C-9.28671534 95.9051994 -10.88551673 94.24514481 -13.4375 91.5625 C-14.35917969 90.64210938 -15.28085937 89.72171875 -16.23046875 88.7734375 C-17.14441406 87.85820312 -18.05835938 86.94296875 -19 86 C-20.72894571 84.53724473 -22.47900267 83.09905046 -24.25 81.6875 C-32.72294722 74.84349816 -40.8776398 67.62120777 -49.0625 60.4375 C-56.83412098 53.62888423 -64.65044456 46.86912502 -72.6875 40.375 C-77.37019705 36.57673621 -81.80653364 32.55837503 -86.2421875 28.4765625 C-89.83854192 25.2469751 -93.57948103 22.21893689 -97.33984375 19.18359375 C-101.3320325 15.90659887 -105.17330843 12.46764396 -109 9 C-108.34 8.67 -107.68 8.34 -107 8 C-106.443125 8.49371094 -105.88625 8.98742187 -105.3125 9.49609375 C-100.07996008 14.01405073 -100.07996008 14.01405073 -93.5625 15.6875 C-92.386875 15.790625 -91.21125 15.89375 -90 16 C-88.5 18.0625 -88.5 18.0625 -88 20 C-87.01 20 -86.02 20 -85 20 C-84.67 21.32 -84.34 22.64 -84 24 C-81.50935112 24.68707555 -79.62113708 25 -77 25 C-77 27.66666667 -77 30.33333333 -77 33 C-74.36 33 -71.72 33 -69 33 C-69 33.66 -69 34.32 -69 35 C-68.01 35.495 -68.01 35.495 -67 36 C-67.33 36.99 -67.66 37.98 -68 39 C-67.278125 39.721875 -66.55625 40.44375 -65.8125 41.1875 C-63.20833333 43.79166667 -60.60416667 46.39583333 -58 49 C-57.01 48.67 -56.02 48.34 -55 48 C-54.34 48.66 -53.68 49.32 -53 50 C-53.99 50.99 -54.98 51.98 -56 53 C-55.236875 53.28875 -54.47375 53.5775 -53.6875 53.875 C-51 55 -51 55 -48 57 C-48 57.66 -48 58.32 -48 59 C-47.01 59.33 -46.02 59.66 -45 60 C-43.66666667 61.33333333 -42.33333333 62.66666667 -41 64 C-40.34 64 -39.68 64 -39 64 C-39 64.66 -39 65.32 -39 66 C-37.515 66.495 -37.515 66.495 -36 67 C-36 67.66 -36 68.32 -36 69 C-34.68 69 -33.36 69 -32 69 C-31.505 67.02 -31.505 67.02 -31 65 C-30.34 65.33 -29.68 65.66 -29 66 C-29 67.65 -29 69.3 -29 71 C-26.35261084 72.4606285 -25.10551666 73 -22 73 C-22.66666667 74.33333333 -23.33333333 75.66666667 -24 77 C-23.34 77 -22.68 77 -22 77 C-21.67 77.99 -21.34 78.98 -21 80 C-20.05125 79.979375 -19.1025 79.95875 -18.125 79.9375 C-15 80 -15 80 -13 81 C-13.33 83.31 -13.66 85.62 -14 88 C-13.01 87.34 -12.02 86.68 -11 86 C-9.515 86.495 -9.515 86.495 -8 87 C-8 88.32 -8 89.64 -8 91 C-7.01 91 -6.02 91 -5 91 C-5 91.99 -5 92.98 -5 94 C-3.35 94.33 -1.7 94.66 0 95 C0 63.65 0 32.3 0 0 Z M-40 50 C-39.67 50.99 -39.34 51.98 -39 53 C-40.175625 53.928125 -40.175625 53.928125 -41.375 54.875 C-43.96837647 56.89858661 -43.96837647 56.89858661 -46 59 C-45.52797514 54.75177626 -43.03344482 52.80010291 -40 50 Z " fill="#583CDE" transform="translate(309,192)"/>
<path d="M0 0 C9 0 9 0 11.8984375 1.87109375 C12.71570313 2.71800781 13.53296875 3.56492187 14.375 4.4375 C17.96868629 7.99615035 21.54211375 11.34834984 25.5 14.5 C29.28460334 17.55348679 32.92207537 20.70668301 36.5 24 C40.9698512 28.11378909 45.59044893 31.97087297 50.31640625 35.78515625 C52.94708557 37.95632827 55.47942424 40.20241357 58 42.5 C61.41739372 45.61458668 64.9052235 48.5918662 68.5 51.5 C73.0323377 55.16812076 77.38469669 58.98906088 81.6953125 62.9140625 C84.74430706 65.67366097 87.86340547 68.34071334 91 71 C90.01 71 89.02 71 88 71 C86.515 71.495 86.515 71.495 85 72 C82.375 71.375 82.375 71.375 80 70 C79.375 67.5625 79.375 67.5625 79 65 C77.5420814 63.20614008 77.5420814 63.20614008 76 62 C75.505 62.99 75.505 62.99 75 64 C74.01 64 73.02 64 72 64 C71.505 60.04 71.505 60.04 71 56 C70.21625 56.020625 69.4325 56.04125 68.625 56.0625 C66 56 66 56 64 55 C63.67 54.34 63.34 53.68 63 53 C62.01 53 61.02 53 60 53 C59.67 52.01 59.34 51.02 59 50 C59.99 49.67 60.98 49.34 62 49 C60.68 48.67 59.36 48.34 58 48 C58 47.34 58 46.68 58 46 C57.34 46 56.68 46 56 46 C55.731875 45.38125 55.46375 44.7625 55.1875 44.125 C54.04443152 41.7004767 54.04443152 41.7004767 51 40 C48.37468476 39.83286431 48.37468476 39.83286431 46 40 C45.67 39.34 45.34 38.68 45 38 C44.01 37.67 43.02 37.34 42 37 C42.33 36.01 42.66 35.02 43 34 C42.34 34 41.68 34 41 34 C40.505 34.99 40.505 34.99 40 36 C39.505 34.02 39.505 34.02 39 32 C37.68 32 36.36 32 35 32 C34.01 32 33.02 32 32 32 C32 31.01 32 30.02 32 29 C32.66 29 33.32 29 34 29 C34 28.34 34 27.68 34 27 C33.34 26.67 32.68 26.34 32 26 C32 25.34 32 24.68 32 24 C29.05270463 22.84188612 29.05270463 22.84188612 26 23 C25.01 23 24.02 23 23 23 C23 20.69 23 18.38 23 16 C20.50935112 15.31292445 18.62113708 15 16 15 C16.33 14.01 16.66 13.02 17 12 C16.34 11.67 15.68 11.34 15 11 C15 10.01 15 9.02 15 8 C12.69 7.67 10.38 7.34 8 7 C7.67 5.02 7.34 3.04 7 1 C5.68 1.33 4.36 1.66 3 2 C3.00222061 3.11864441 3.00444122 4.23728882 3.00672913 5.38983154 C3.02698946 15.92534394 3.04198612 26.4608524 3.05181217 36.99637985 C3.05703363 42.4129594 3.06411796 47.82952324 3.07543945 53.24609375 C3.08629444 58.47210088 3.0922824 63.69809288 3.09487724 68.92411041 C3.09672677 70.91922494 3.10033835 72.91433862 3.10573006 74.90944672 C3.11297509 77.70104266 3.11398947 80.49257588 3.11352539 83.28417969 C3.11712067 84.11136505 3.12071594 84.93855042 3.12442017 85.790802 C3.11794723 89.38249689 2.88875548 92.53802296 2 96 C1.85047043 98.4699938 1.74440998 100.91861673 1.68359375 103.390625 C1.6524221 104.44754547 1.6524221 104.44754547 1.62062073 105.52581787 C1.55546163 107.76711681 1.49639752 110.00852864 1.4375 112.25 C1.39428274 113.77344897 1.35066743 115.29688671 1.30664062 116.8203125 C1.19981509 120.54675591 1.09845361 124.27332494 1 128 C0.67 128 0.34 128 0 128 C0 85.76 0 43.52 0 0 Z " fill="#5F2CF5" transform="translate(89,112)"/>
<path d="M0 0 C3.15406387 0.35045154 3.9850557 0.98285801 6.125 3.4375 C9.66129805 6.58941783 12.19206857 6.84410945 16.79296875 7.34765625 C19 8 19 8 20.30078125 10.05859375 C20.53152344 10.69925781 20.76226562 11.33992187 21 12 C21.99 12 22.98 12 24 12 C24.33 13.32 24.66 14.64 25 16 C27.49064888 16.68707555 29.37886292 17 32 17 C32 19.66666667 32 22.33333333 32 25 C34.64 25 37.28 25 40 25 C40 25.66 40 26.32 40 27 C40.66 27.33 41.32 27.66 42 28 C41.505 29.485 41.505 29.485 41 31 C41.721875 31.721875 42.44375 32.44375 43.1875 33.1875 C45.79166667 35.79166667 48.39583333 38.39583333 51 41 C51.99 40.67 52.98 40.34 54 40 C54.66 40.66 55.32 41.32 56 42 C55.01 42.99 54.02 43.98 53 45 C53.763125 45.28875 54.52625 45.5775 55.3125 45.875 C58 47 58 47 61 49 C61 49.66 61 50.32 61 51 C61.99 51.33 62.98 51.66 64 52 C65.33333333 53.33333333 66.66666667 54.66666667 68 56 C68.66 56 69.32 56 70 56 C70 56.66 70 57.32 70 58 C71.485 58.495 71.485 58.495 73 59 C73 59.99 73 60.98 73 62 C74.32 62.66 75.64 63.32 77 64 C77 64.99 77 65.98 77 67 C64.39868766 56.37724738 64.39868766 56.37724738 58.2109375 50.93359375 C51.00736659 44.633651 43.75641463 38.38985365 36.3125 32.375 C31.62980295 28.57673621 27.19346636 24.55837503 22.7578125 20.4765625 C19.16092468 17.2464961 15.41841609 14.21874078 11.66015625 11.1796875 C7.67209568 7.91193743 3.70619458 4.58723031 0 1 C0 0.67 0 0.34 0 0 Z M69 42 C69.33 42.99 69.66 43.98 70 45 C68.824375 45.928125 68.824375 45.928125 67.625 46.875 C65.03162353 48.89858661 65.03162353 48.89858661 63 51 C63.47202486 46.75177626 65.96655518 44.80010291 69 42 Z " fill="#4C5BF2" transform="translate(200,200)"/>
<path d="M0 0 C0 3 0 3 -0.5 6.7421875 C-1.27751883 13.51809982 -1.06894442 20.31591817 -1 27.125 C-0.97398436 29.77339166 -0.95314059 32.42183924 -0.9375 35.0703125 C-0.92589844 36.23320801 -0.91429688 37.39610352 -0.90234375 38.59423828 C-1.04591764 45.07157412 -1.5690282 51.53542296 -2 58 C32.98 58 67.96 58 104 58 C104 42.49 104 26.98 104 11 C104.66 11 105.32 11 106 11 C106 26.84 106 42.68 106 59 C69.7 59 33.4 59 -4 59 C-4 11 -4 11 -3 1 C-2.01 0.67 -1.02 0.34 0 0 Z " fill="#24ADEB" transform="translate(93,229)"/>
<path d="M0 0 C36.96 0 73.92 0 112 0 C112 10.56 112 21.12 112 32 C111.34 32 110.68 32 110 32 C110 21.77 110 11.54 110 1 C74.69 1.33 39.38 1.66 3 2 C3 16.85 3 31.7 3 47 C2.505 47.495 2.505 47.495 2 48 C1.83976438 50.88252645 1.74045971 53.74378527 1.68359375 56.62890625 C1.66281265 57.49313705 1.64203156 58.35736786 1.62062073 59.24778748 C1.55502886 62.01927445 1.49619582 64.79085921 1.4375 67.5625 C1.39432392 69.43685923 1.35070994 71.31120843 1.30664062 73.18554688 C1.19933773 77.79026336 1.09809785 82.39507858 1 87 C0.67 87 0.34 87 0 87 C0 58.29 0 29.58 0 0 Z " fill="#37B2E7" transform="translate(199,112)"/>
<path d="M0 0 C2.97 0 5.94 0 9 0 C9.33 0.66 9.66 1.32 10 2 C7.69 2 5.38 2 3 2 C3.00222061 3.11864441 3.00444122 4.23728882 3.00672913 5.38983154 C3.02698946 15.92534394 3.04198612 26.4608524 3.05181217 36.99637985 C3.05703363 42.4129594 3.06411796 47.82952324 3.07543945 53.24609375 C3.08629444 58.47210088 3.0922824 63.69809288 3.09487724 68.92411041 C3.09672677 70.91922494 3.10033835 72.91433862 3.10573006 74.90944672 C3.11297509 77.70104266 3.11398947 80.49257588 3.11352539 83.28417969 C3.11712067 84.11136505 3.12071594 84.93855042 3.12442017 85.790802 C3.11794723 89.38249689 2.88875548 92.53802296 2 96 C1.85047043 98.4699938 1.74440998 100.91861673 1.68359375 103.390625 C1.6524221 104.44754547 1.6524221 104.44754547 1.62062073 105.52581787 C1.55546163 107.76711681 1.49639752 110.00852864 1.4375 112.25 C1.39428274 113.77344897 1.35066743 115.29688671 1.30664062 116.8203125 C1.19981509 120.54675591 1.09845361 124.27332494 1 128 C0.67 128 0.34 128 0 128 C0 85.76 0 43.52 0 0 Z " fill="#5B35DE" transform="translate(89,112)"/>
<path d="M0 0 C5.45312123 3.88420646 10.42447737 8.12926951 15.36328125 12.64453125 C18.0153883 15.01374688 20.73432638 17.26483641 23.5 19.5 C28.0323377 23.16812076 32.38469669 26.98906088 36.6953125 30.9140625 C39.74430706 33.67366097 42.86340547 36.34071334 46 39 C45.01 39 44.02 39 43 39 C42.01 39.33 41.02 39.66 40 40 C37.375 39.375 37.375 39.375 35 38 C34.375 35.5625 34.375 35.5625 34 33 C32.5420814 31.20614008 32.5420814 31.20614008 31 30 C30.67 30.66 30.34 31.32 30 32 C29.01 32 28.02 32 27 32 C26.67 29.36 26.34 26.72 26 24 C24.824375 24.0309375 24.824375 24.0309375 23.625 24.0625 C21 24 21 24 19 23 C18.67 22.34 18.34 21.68 18 21 C17.01 21 16.02 21 15 21 C14.67 20.01 14.34 19.02 14 18 C14.99 17.67 15.98 17.34 17 17 C15.68 16.67 14.36 16.34 13 16 C13 15.34 13 14.68 13 14 C12.34 14 11.68 14 11 14 C10.731875 13.38125 10.46375 12.7625 10.1875 12.125 C9.04443152 9.7004767 9.04443152 9.7004767 6 8 C3.37468476 7.83286431 3.37468476 7.83286431 1 8 C0.67 7.34 0.34 6.68 0 6 C-0.99 5.67 -1.98 5.34 -3 5 C-2.67 4.01 -2.34 3.02 -2 2 C-1.34 2 -0.68 2 0 2 C0 1.34 0 0.68 0 0 Z " fill="#4C5CEE" transform="translate(134,144)"/>
<path d="M0 0 C5.84970113 0.36968371 8.43096295 1.70501848 12.5625 5.8125 C16.20819075 9.39469541 19.69714834 12.28939301 24 15 C24 13.35 24 11.7 24 10 C24.66 10.33 25.32 10.66 26 11 C25.67 12.32 25.34 13.64 25 15 C25.66 15 26.32 15 27 15 C26.67 15.66 26.34 16.32 26 17 C25.01 16.67 24.02 16.34 23 16 C23 17.98 23 19.96 23 22 C22.01 22 21.02 22 20 22 C19.67 22.66 19.34 23.32 19 24 C17.58622659 21.36095629 16.62759865 18.92879371 16 16 C14.68 15.67 13.36 15.34 12 15 C11.67 13.68 11.34 12.36 11 11 C10.01 11.33 9.02 11.66 8 12 C8 10 8 8 8 6 C5.69 6.33 3.38 6.66 1 7 C0.67 4.69 0.34 2.38 0 0 Z " fill="#4569F0" transform="translate(176,184)"/>
<path d="M0 0 C0.66 0.33 1.32 0.66 2 1 C2 2.65 2 4.3 2 6 C4.64738916 7.4606285 5.89448334 8 9 8 C8.33333333 9.33333333 7.66666667 10.66666667 7 12 C7.66 12 8.32 12 9 12 C9.33 12.99 9.66 13.98 10 15 C11.423125 14.9690625 11.423125 14.9690625 12.875 14.9375 C16 15 16 15 18 16 C17.67 18.31 17.34 20.62 17 23 C17.99 22.34 18.98 21.68 20 21 C20.99 21.33 21.98 21.66 23 22 C23 23.32 23 24.64 23 26 C23.99 26 24.98 26 26 26 C25.67 27.32 25.34 28.64 25 30 C18.34453351 27.23735353 13.77770921 23.33209513 8.5546875 18.3984375 C6.58676272 16.55087509 4.62291227 14.84569515 2.5 13.1875 C-0.04219634 10.9630782 -1.40573096 8.94939772 -3 6 C-3.66 5.34 -4.32 4.68 -5 4 C-3.68 4 -2.36 4 -1 4 C-0.67 2.68 -0.34 1.36 0 0 Z " fill="#6A16FA" transform="translate(278,257)"/>
<path d="M0 0 C5.99623218 1.60683346 9.85894414 3.14904885 14 8 C14.763125 8.763125 15.52625 9.52625 16.3125 10.3125 C16.869375 10.869375 17.42625 11.42625 18 12 C18.99 11.67 19.98 11.34 21 11 C21.66 11.66 22.32 12.32 23 13 C22.01 13.99 21.02 14.98 20 16 C20.763125 16.28875 21.52625 16.5775 22.3125 16.875 C25 18 25 18 28 20 C28 20.66 28 21.32 28 22 C28.99 22.33 29.98 22.66 31 23 C32.33333333 24.33333333 33.66666667 25.66666667 35 27 C35.66 27 36.32 27 37 27 C37 27.66 37 28.32 37 29 C37.99 29.33 38.98 29.66 40 30 C40 30.99 40 31.98 40 33 C41.32 33.66 42.64 34.32 44 35 C44 35.99 44 36.98 44 38 C31.41015376 27.38691316 31.41015376 27.38691316 27.0625 23.5625 C14.55005695 12.54366093 14.55005695 12.54366093 1.4765625 2.20703125 C0.98929688 1.80871094 0.50203125 1.41039062 0 1 C0 0.67 0 0.34 0 0 Z M36 13 C36.33 13.99 36.66 14.98 37 16 C35.824375 16.928125 35.824375 16.928125 34.625 17.875 C32.03162353 19.89858661 32.03162353 19.89858661 30 22 C30.47202486 17.75177626 32.96655518 15.80010291 36 13 Z " fill="#5D3FE8" transform="translate(233,229)"/>
<path d="M0 0 C0.33 0 0.66 0 1 0 C1.31309834 5.37057549 1.61583981 10.7416036 1.90942383 16.11328125 C2.01049089 17.93667932 2.11427776 19.75992891 2.22094727 21.58300781 C2.37469217 24.21904726 2.51831232 26.85548396 2.66015625 29.4921875 C2.70906509 30.29365204 2.75797394 31.09511658 2.80836487 31.92086792 C3.06475564 36.90624767 2.81895733 41.6536016 2.25465393 46.61178589 C1.88584102 50.07061405 1.7825534 53.49883773 1.68359375 56.9765625 C1.66281265 57.67268646 1.64203156 58.36881042 1.62062073 59.08602905 C1.55629534 61.26560584 1.49679726 63.44528126 1.4375 65.625 C1.39420285 67.12110312 1.35058544 68.61719701 1.30664062 70.11328125 C1.20073818 73.74208861 1.0991582 77.37100135 1 81 C0.67 81 0.34 81 0 81 C0 54.27 0 27.54 0 0 Z " fill="#456ADF" transform="translate(89,159)"/>
<path d="M0 0 C0.66 0.33 1.32 0.66 2 1 C1.67 29.71 1.34 58.42 1 88 C-0.98 86.68 -2.96 85.36 -5 84 C-4.34 83.01 -3.68 82.02 -3 81 C-2.34 81 -1.68 81 -1 81 C-0.67 54.27 -0.34 27.54 0 0 Z " fill="#E3FCFE" transform="translate(198,111)"/>
<path d="M0 0 C2.31 1.65 4.62 3.3 7 5 C6.67 5.66 6.34 6.32 6 7 C4.68 6.67 3.36 6.34 2 6 C1.67 32.73 1.34 59.46 1 87 C0.67 87 0.34 87 0 87 C0 58.29 0 29.58 0 0 Z " fill="#ECFFFF" transform="translate(200,201)"/>
<path d="M0 0 C8.30823271 5.91787526 15.90867843 12.67230104 23 20 C20.23735711 20.59732819 17.83967231 21 15 21 C14.67 20.01 14.34 19.02 14 18 C14.99 17.67 15.98 17.34 17 17 C15.68 16.67 14.36 16.34 13 16 C13 15.34 13 14.68 13 14 C12.34 14 11.68 14 11 14 C10.731875 13.38125 10.46375 12.7625 10.1875 12.125 C9.04443152 9.7004767 9.04443152 9.7004767 6 8 C3.37468476 7.83286431 3.37468476 7.83286431 1 8 C0.67 7.34 0.34 6.68 0 6 C-0.99 5.67 -1.98 5.34 -3 5 C-2.67 4.01 -2.34 3.02 -2 2 C-1.34 2 -0.68 2 0 2 C0 1.34 0 0.68 0 0 Z " fill="#5841EB" transform="translate(134,144)"/>
<path d="M0 0 C0.66 0.66 1.32 1.32 2 2 C1.70700977 3.67422986 1.37309899 5.34178227 1 7 C1.33 7.66 1.66 8.32 2 9 C4.64 9 7.28 9 10 9 C10 9.66 10 10.32 10 11 C10.66 11.33 11.32 11.66 12 12 C11.01 13.485 11.01 13.485 10 15 C3.7759238 14.11084626 -0.24441827 10.94033915 -5 7 C-4.75 4.625 -4.75 4.625 -4 2 C-1.9375 0.6875 -1.9375 0.6875 0 0 Z " fill="#5154EE" transform="translate(230,216)"/>
<path d="M0 0 C0.66 0.33 1.32 0.66 2 1 C2 2.65 2 4.3 2 6 C4.64738916 7.4606285 5.89448334 8 9 8 C7.89131683 10.21736634 6.50559539 12.03617993 5 14 C5.598125 14.2475 6.19625 14.495 6.8125 14.75 C9.28647521 16.16370012 10.43370255 17.65055383 12 20 C5.5965336 17.09193808 0.2217448 12.26450378 -3 6 C-3.66 5.34 -4.32 4.68 -5 4 C-3.68 4 -2.36 4 -1 4 C-0.67 2.68 -0.34 1.36 0 0 Z " fill="#6620FC" transform="translate(278,257)"/>
<path d="M0 0 C3.91683244 1.35422398 6.63952884 3.08300936 9.75 5.8125 C10.52859375 6.47894531 11.3071875 7.14539063 12.109375 7.83203125 C14.23196922 10.26599776 14.66792472 11.82868107 15 15 C11 15 11 15 9 14 C9.33 13.01 9.66 12.02 10 11 C9.34 10.67 8.68 10.34 8 10 C8 9.01 8 8.02 8 7 C5.69 6.67 3.38 6.34 1 6 C0.67 4.02 0.34 2.04 0 0 Z " fill="#6522EF" transform="translate(96,113)"/>
<path d="M0 0 C0.99 0 1.98 0 3 0 C3 11.22 3 22.44 3 34 C2.67 34 2.34 34 2 34 C1.34 22.78 0.68 11.56 0 0 Z " fill="#3781E7" transform="translate(196,206)"/>
<path d="M0 0 C0.66 0.33 1.32 0.66 2 1 C1.67 2.32 1.34 3.64 1 5 C1.66 5 2.32 5 3 5 C2.67 5.66 2.34 6.32 2 7 C1.01 6.67 0.02 6.34 -1 6 C-1 7.98 -1 9.96 -1 12 C-1.99 12 -2.98 12 -4 12 C-4.33 12.66 -4.66 13.32 -5 14 C-6.4606285 11.35261084 -7 10.10551666 -7 7 C-5 5 -5 5 -2.375 4.875 C-1.59125 4.91625 -0.8075 4.9575 0 5 C0 3.35 0 1.7 0 0 Z " fill="#3D6EF6" transform="translate(200,194)"/>
<path d="M0 0 C4.39600078 0.50240009 6.90775631 1.82186065 10 5 C10.8125 8.25 10.8125 8.25 11 11 C9.68 11.33 8.36 11.66 7 12 C6.67 9.36 6.34 6.72 6 4 C5.21625 4.020625 4.4325 4.04125 3.625 4.0625 C1 4 1 4 -1 3 C-0.67 2.01 -0.34 1.02 0 0 Z " fill="#524FED" transform="translate(154,164)"/>
<path d="M0 0 C0.515625 0.350625 1.03125 0.70125 1.5625 1.0625 C4.94006667 2.3615641 7.50468057 1.67217681 11 1 C10.67 2.32 10.34 3.64 10 5 C11.32 5.33 12.64 5.66 14 6 C13.67 7.32 13.34 8.64 13 10 C7.20217529 7.55426749 3.71314526 5.10557473 0 0 Z " fill="#6B1CE9" transform="translate(290,277)"/>
<path d="M0 0 C3 1 6 2 9 3 C9 3.66 9 4.32 9 5 C9.99 5.33 10.98 5.66 12 6 C12 6.99 12 7.98 12 9 C13.32 9.66 14.64 10.32 16 11 C16 11.99 16 12.98 16 14 C13.89441606 12.2308289 11.79049842 10.4597399 9.6875 8.6875 C9.09259766 8.18798828 8.49769531 7.68847656 7.88476562 7.17382812 C7.30791016 6.68720703 6.73105469 6.20058594 6.13671875 5.69921875 C5.60780029 5.25408936 5.07888184 4.80895996 4.53393555 4.3503418 C2.95471373 2.96013395 1.47187013 1.50273504 0 0 Z " fill="#6A3DE3" transform="translate(261,253)"/>
<path d="M0 0 C1.98 0.66 3.96 1.32 6 2 C6 2.66 6 3.32 6 4 C7.65 4.33 9.3 4.66 11 5 C10.360625 5.28875 9.72125 5.5775 9.0625 5.875 C6.84793921 6.82823451 6.84793921 6.82823451 6 9 C5.67 7.68 5.34 6.36 5 5 C3.68 5 2.36 5 1 5 C0.01 5 -0.98 5 -2 5 C-2 4.01 -2 3.02 -2 2 C-1.34 2 -0.68 2 0 2 C0 1.34 0 0.68 0 0 Z " fill="#5B32FA" transform="translate(123,139)"/>
<path d="M0 0 C1.29608947 0.93137592 2.58671632 1.8703566 3.875 2.8125 C4.59429687 3.33457031 5.31359375 3.85664063 6.0546875 4.39453125 C8 6 8 6 10 9 C7.23735711 9.59732819 4.83967231 10 2 10 C1.67 9.01 1.34 8.02 1 7 C1.99 6.67 2.98 6.34 4 6 C3.34 5.38125 2.68 4.7625 2 4.125 C0 2 0 2 0 0 Z " fill="#564FE7" transform="translate(147,155)"/>
<path d="M0 0 C0.94875 0.04125 1.8975 0.0825 2.875 0.125 C2.875 0.785 2.875 1.445 2.875 2.125 C3.535 2.455 4.195 2.785 4.875 3.125 C3.885 4.61 3.885 4.61 2.875 6.125 C-0.81254757 5.62668276 -2.72990662 5.02432357 -5.125 2.125 C-3.125 0.125 -3.125 0.125 0 0 Z " fill="#4F48F8" transform="translate(237.125,224.875)"/>
<path d="M0 0 C4.27937006 0.47548556 6.06417851 3.06417851 9 6 C11.66533035 7.319018 11.66533035 7.319018 14 8 C13.67 8.99 13.34 9.98 13 11 C9.54691313 9.48729451 7.04375621 7.45279358 4.25 4.9375 C3.45078125 4.22464844 2.6515625 3.51179687 1.828125 2.77734375 C1.22484375 2.19082031 0.6215625 1.60429687 0 1 C0 0.67 0 0.34 0 0 Z " fill="#556CE0" transform="translate(200,200)"/>
<path d="M0 0 C1.29608947 0.93137592 2.58671632 1.8703566 3.875 2.8125 C4.59429687 3.33457031 5.31359375 3.85664062 6.0546875 4.39453125 C8 6 8 6 10 9 C9.401875 8.814375 8.80375 8.62875 8.1875 8.4375 C5.83591238 7.77906313 5.83591238 7.77906313 3 9 C1.75837359 6.02009661 0.74438917 3.1385057 0 0 Z " fill="#6837E4" transform="translate(110,123)"/>
<path d="M0 0 C4.51045941 2.46025059 8.18504423 5.60282037 12 9 C11.01 9.495 11.01 9.495 10 10 C9.01 9.67 8.02 9.34 7 9 C6.67 8.34 6.34 7.68 6 7 C3.98330173 5.86649466 3.98330173 5.86649466 2 5 C2 4.34 2 3.68 2 3 C1.34 2.67 0.68 2.34 0 2 C0 1.34 0 0.68 0 0 Z " fill="#6141DF" transform="translate(122,134)"/>
<path d="M0 0 C2.97 0.495 2.97 0.495 6 1 C5.67 1.99 5.34 2.98 5 4 C5.598125 4.2475 6.19625 4.495 6.8125 4.75 C9.28647521 6.16370012 10.43370255 7.65055383 12 10 C8.78727751 8.56006357 6.3793336 6.76981628 3.75 4.4375 C3.04359375 3.81746094 2.3371875 3.19742187 1.609375 2.55859375 C1.07828125 2.04425781 0.5471875 1.52992188 0 1 C0 0.67 0 0.34 0 0 Z " fill="#6C35D9" transform="translate(278,267)"/>
<path d="M0 0 C1.46224799 0.42423244 2.91973412 0.86490245 4.375 1.3125 C5.18710938 1.55613281 5.99921875 1.79976562 6.8359375 2.05078125 C9 3 9 3 11 6 C8.35556973 6.3888868 6.61173798 6.39540909 4.33203125 4.921875 C2.83068266 3.68085526 1.40974295 2.34417351 0 1 C0 0.67 0 0.34 0 0 Z " fill="#6155EE" transform="translate(233,229)"/>
<path d="M0 0 C2.31 1.65 4.62 3.3 7 5 C6.67 5.66 6.34 6.32 6 7 C5.38125 6.79375 4.7625 6.5875 4.125 6.375 C3.42375 6.25125 2.7225 6.1275 2 6 C1.34 6.66 0.68 7.32 0 8 C0 5.36 0 2.72 0 0 Z " fill="#E9F6FE" transform="translate(200,201)"/>
<path d="M0 0 C2.97 0.99 5.94 1.98 9 3 C9 4.65 9 6.3 9 8 C7.68388323 7.04663979 6.37221039 6.08714226 5.0625 5.125 C4.33160156 4.59132813 3.60070312 4.05765625 2.84765625 3.5078125 C1 2 1 2 0 0 Z " fill="#F5E4FE" transform="translate(108,121)"/>
<path d="M0 0 C1.65 0 3.3 0 5 0 C4.835 0.598125 4.67 1.19625 4.5 1.8125 C3.8885876 4.11344336 3.8885876 4.11344336 4 7 C3.01 7 2.02 7 1 7 C0.67 4.69 0.34 2.38 0 0 Z " fill="#435FFA" transform="translate(176,184)"/>
<path d="M0 0 C0.99 0 1.98 0 3 0 C3.33 1.65 3.66 3.3 4 5 C2.68 5.33 1.36 5.66 0 6 C-0.38218767 4.34385343 -0.71395102 2.67542976 -1 1 C-0.67 0.67 -0.34 0.34 0 0 Z " fill="#4951FB" transform="translate(161,170)"/>
<path d="M0 0 C5.75 3.625 5.75 3.625 8 7 C6.68 7 5.36 7 4 7 C0 2.77777778 0 2.77777778 0 0 Z " fill="#595DE4" transform="translate(164,170)"/>
<path d="M0 0 C1.65 0 3.3 0 5 0 C6 3 6 3 5 6 C3.35 4.02 1.7 2.04 0 0 Z " fill="#E5ECFE" transform="translate(168,172)"/>
</svg>
