<svg version="1.1" id="Layer_1" xmlns="http://www.w3.org/2000/svg" xmlns:xlink="http://www.w3.org/1999/xlink" x="0px" y="0px" viewBox="0 0 59.2 62.1" style="enable-background:new 0 0 59.2 62.1;" xml:space="preserve">
 <style type="text/css">
  .st0{fill:#42B0D5;}
	.st1{fill:#FFFFFF;}
 </style>
 <g id="Large---1280px-_x28_Max-Width_x29_">
  <g id="IGN---Transparent" transform="translate(-104.000000, -21.000000)">
   <g id="IGN">
    <g id="Logo" transform="translate(104.000000, 21.000000)">
     <g id="Star">
      <path id="Shape" class="st0" d="M7.1,0h44.9c3.9,0,7.1,3.2,7.1,7.1V55c0,3.9-3.2,7.1-7.1,7.1H7.1C3.2,62.1,0,58.9,0,55V7.1
						c0-1.9,0.7-3.7,2.1-5S5.2,0,7.1,0z">
      </path>
      <polygon id="Shape_1_" class="st1" points="39,29.3 50.7,14.8 50.7,14.8 33.8,22.8 29.6,4.7 29.6,4.7 25.4,22.8 8.5,14.8 
						8.5,14.8 20.2,29.3 3.3,37.4 3.3,37.4 22,37.4 17.9,55.5 17.9,55.5 29.6,41 41.3,55.5 41.3,55.5 37.1,37.4 55.9,37.4 
						55.9,37.4 					">
      </polygon>
     </g>
    </g>
   </g>
  </g>
 </g>
</svg>